<?xml version="1.0" encoding="UTF-8" standalone="no"?>
<!-- Created with Inkscape (http://www.inkscape.org/) -->

<svg
   xmlns:dc="http://purl.org/dc/elements/1.1/"
   xmlns:cc="http://creativecommons.org/ns#"
   xmlns:rdf="http://www.w3.org/1999/02/22-rdf-syntax-ns#"
   xmlns:svg="http://www.w3.org/2000/svg"
   xmlns="http://www.w3.org/2000/svg"
   xmlns:sodipodi="http://sodipodi.sourceforge.net/DTD/sodipodi-0.dtd"
   xmlns:inkscape="http://www.inkscape.org/namespaces/inkscape"
   width="480"
   height="480"
   id="svg2"
   version="1.1"
   inkscape:version="0.48.1 r9760"
   sodipodi:docname="bumblebee_new.svg">
  <defs
     id="defs4" />
  <sodipodi:namedview
     id="base"
     pagecolor="#ffffff"
     bordercolor="#666666"
     borderopacity="1.0"
     inkscape:pageopacity="0"
     inkscape:pageshadow="2"
     inkscape:zoom="1.979899"
     inkscape:cx="285.17497"
     inkscape:cy="214.01542"
     inkscape:document-units="px"
     inkscape:current-layer="layer1"
     showgrid="false"
     inkscape:window-width="1366"
     inkscape:window-height="744"
     inkscape:window-x="0"
     inkscape:window-y="24"
     inkscape:window-maximized="1"
     fit-margin-left="1"
     fit-margin-right="1"
     fit-margin-top="1"
     fit-margin-bottom="1"
     showborder="true"
     borderlayer="false"
     inkscape:showpageshadow="true" />
  <metadata
     id="metadata7">
    <rdf:RDF>
      <cc:Work
         rdf:about="">
        <dc:format>image/svg+xml</dc:format>
        <dc:type
           rdf:resource="http://purl.org/dc/dcmitype/StillImage" />
        <dc:title></dc:title>
      </cc:Work>
    </rdf:RDF>
  </metadata>
  <g
     inkscape:label="Calque 1"
     inkscape:groupmode="layer"
     id="layer1"
     transform="translate(-5.61961,-560.07871)">
    <g
       id="g3303"
       transform="translate(0,33.335034)">
      <path
         style="fill:#d5d5d5"
         d="m 210.07996,896.7606 c -1.66991,-1.79243 -2.03896,-3.52383 -2.03896,-9.56574 0,-11.30614 -0.55955,-10.92666 16.45899,-11.16219 l 14.54101,-0.20125 0,11.55887 0,11.55887 -13.46104,0 c -12.55988,0 -13.59755,-0.14652 -15.5,-2.18856 z m 43.62771,1.52189 C 253.341,897.91583 253.041,892.71968 253.041,886.7355 l 0,-10.88032 14.25,0.14449 c 8.02171,0.0813 14.79634,0.59247 15.5,1.16944 2.27331,1.86401 1.50501,21.67372 -0.78569,20.25799 -0.45436,-0.28081 -1.10877,-0.0532 -1.45423,0.50575 -0.6946,1.12389 -25.7429,1.45015 -26.84341,0.34964 z M 209.07618,867.0149 c -0.56935,-1.06384 -1.03518,-4.69342 -1.03518,-8.06574 0,-10.15844 -0.26199,-10 16.53518,-10 l 14.46482,0 0,10 0,10 -14.46482,0 c -13.27748,0 -14.54978,-0.15877 -15.5,-1.93426 z m 43.96482,-8.06574 0,-10 14.46482,0 c 16.85792,0 16.53518,-0.20206 16.53518,10.35247 0,10.21989 0.95558,9.64753 -16.10699,9.64753 l -14.89301,0 z m -143.75,0.31067 c 1.3924,-0.36387 1.75,-1.5537 1.75,-5.82272 l 0,-5.3654 -4.75,-0.65671 c -10.24584,-1.41653 -29.250003,-7.52743 -29.250003,-9.40551 0,-0.39985 -0.592764,-0.727 -1.317254,-0.727 -1.869539,0 -15.682746,-9.08373 -15.682746,-10.31316 0,-0.56109 -0.632865,-1.02017 -1.406366,-1.02017 -1.608224,0 -14.587196,-13.65934 -14.60607,-15.37173 7.267505,-18.89416 15.368643,-30.5663 26.417097,-41.58463 11.048454,-11.01834 25.30608,-16.18312 36.298292,-19.01326 l 4.20296,-1.08213 0.29704,-6.22413 0.29705,-6.22412 13,0.22122 c 20.58989,0.35037 43.50758,4.66763 68.63861,12.9302 6.24876,2.05447 11.58639,3.80154 11.86139,3.88238 5.06665,1.48944 27.21262,12.50684 34.11437,16.97156 7.09016,4.58661 7.35628,4.67003 9.83647,3.0835 9.46172,-6.05247 17.11062,-10.26704 25.68981,-14.15519 5.42264,-2.45757 9.77639,-4.82191 9.67499,-5.25407 -0.1014,-0.43217 0.7986,-0.77938 2,-0.77158 1.2014,0.008 7.29699,-1.67472 13.54575,-3.73891 24.98353,-8.25297 48.0112,-12.59688 68.63861,-12.94789 l 13,-0.22122 0.29705,6.22412 0.29704,6.22413 4.20296,1.08213 c 10.99221,2.83014 23.70295,8.23541 23.70295,10.07972 0,0.55436 0.35116,0.7909 0.78036,0.52565 5.06394,-3.1297 38.33803,40.37972 38.23208,49.99252 -0.0189,1.71239 -12.99785,15.37173 -14.60607,15.37173 -0.77351,0 -1.40637,0.45908 -1.40637,1.02017 0,1.22943 -13.81321,10.31316 -15.68275,10.31316 -0.72449,0 -1.31725,0.32715 -1.31725,0.727 0,1.87808 -19.00416,7.98898 -29.25,9.40551 l -4.75,0.65671 0,5.3654 c 0,4.26902 0.3576,5.45885 1.75,5.82272 0.9625,0.25153 -2.75,0.50891 -8.25,0.57196 -22.92907,0.26285 -44.93179,-7.029 -65.37552,-21.66587 -9.02815,-6.46378 -26.12448,-22.654 -26.12448,-24.73986 0,-1.95921 22.72186,-23.26086 31.6675,-29.68816 18.85472,-13.54682 35.66565,-20.46625 52.16545,-21.47146 12.99269,-0.79155 14.16705,-0.1656 14.16705,7.55124 0,3.98627 0.39245,5.79815 1.25585,5.79815 3.66096,0 16.83528,11.30168 19.74685,16.93996 0.82176,1.59135 1.77585,3.11837 2.12019,3.39337 0.34435,0.275 1.66959,2.93598 2.94499,5.91329 l 2.3189,5.4133 -3.94339,3.43075 c -5.66579,4.92924 -12.90372,8.33147 -19.0807,8.96899 l -5.36269,0.55348 0,5.99602 0,5.99602 4.34689,-0.59581 c 5.20044,-0.7128 12.32523,-3.03327 19.15311,-6.23797 2.75,-1.29073 5.34635,-2.35784 5.76967,-2.37137 0.42331,-0.0135 1.32331,-0.49174 2,-1.0627 0.67668,-0.57095 4.29589,-3.31676 8.0427,-6.10179 8.31374,-6.17967 8.5532,-6.74434 5.60907,-13.22726 C 419.1678,785.46046 405.30059,771.40387 391.22483,766.39843 380.0128,762.41136 381.041,763.42354 381.041,756.37315 l 0,-6.33336 -3.56489,-0.66878 c -23.63305,-4.43359 -60.87967,10.38149 -95.40405,37.94756 l -9.39511,7.50155 -4.56798,-2.64301 c -2.51238,-1.45365 -8.39297,-4.93723 -13.06797,-7.74128 l -8.5,-5.09828 -12.98483,7.73336 c -7.14166,4.25334 -13.44166,7.38791 -14,6.9657 -0.55835,-0.4222 -5.29017,-4.14974 -10.51517,-8.28341 -33.24711,-26.30288 -70.30105,-40.72217 -93.47421,-36.37486 l -3.52579,0.66145 0,6.33336 c 0,7.05039 1.02819,6.03821 -10.18383,10.02528 -14.075768,5.00544 -27.94297,19.06203 -35.737612,36.22568 -2.944128,6.48292 -2.704675,7.04759 5.609073,13.22726 3.746801,2.78503 7.476305,5.63386 8.287786,6.33074 0.81148,0.69688 1.611613,1.12785 1.778072,0.95771 0.166459,-0.17014 2.652521,0.79395 5.524581,2.14242 7.035927,3.30346 14.12025,5.62271 19.37503,6.34296 l 4.3469,0.59581 0,-5.99602 0,-5.99602 -5.3627,-0.55348 c -6.176976,-0.63752 -13.414899,-4.03975 -19.080694,-8.96899 l -3.943391,-3.43075 2.318903,-5.4133 c 1.275397,-2.97731 2.60064,-5.63829 2.944985,-5.91329 0.344346,-0.275 1.298435,-1.80202 2.120199,-3.39337 2.911566,-5.63828 16.085888,-16.93996 19.746838,-16.93996 0.86341,0 1.25586,-1.81188 1.25586,-5.79815 0,-7.71684 1.17436,-8.34279 14.16705,-7.55124 16.4998,1.00521 33.31073,7.92464 52.16545,21.47146 8.94564,6.4273 31.6675,27.72895 31.6675,29.68816 0,2.08586 -17.09633,18.27608 -26.12448,24.73986 -20.44373,14.63687 -42.44645,21.92872 -65.37552,21.66587 -5.5,-0.0631 -9.2125,-0.32043 -8.25,-0.57196 z m 25.72093,-14.28492 c 9.45694,-2.45568 20.30056,-7.79761 28.63739,-14.10774 3.57368,-2.7049 6.66074,-4.91801 6.86013,-4.91801 1.01151,0 11.49408,-11.68797 11.5114,-12.83511 0.0613,-4.06171 -23.01616,-25.81979 -33.80564,-31.8729 -11.12738,-6.24267 -25.18618,-9.0034 -33.92421,-6.6617 -3.3749,0.90443 -3.58834,44.36971 -0.21788,44.36971 5.90652,0 12.41283,-4.72845 19.26391,-14 2.23528,-3.025 4.35343,-5.725 4.707,-6 0.35357,-0.275 0.94334,-1.3134 1.31061,-2.30755 0.66322,-1.79527 9.68636,4.27766 9.68636,6.51931 0,0.43353 0.5625,0.80611 1.25,0.82795 0.6875,0.0218 3.47347,2.08525 6.19104,4.58536 5.17018,4.75648 5.36751,6.28306 1.13856,8.8081 -0.9827,0.58676 -3.1217,2.28937 -4.75333,3.78358 -7.31926,6.70284 -20.21572,11.78325 -29.91137,11.78325 -10.31836,0 -10.9149,0.41674 -10.9149,7.625 l 0,6.375 7.75,-0.0171 c 4.37945,-0.01 10.99918,-0.86085 15.22093,-1.95711 z M 381.041,840.57416 c 0,-7.20826 -0.59654,-7.625 -10.9149,-7.625 -9.69565,0 -22.59211,-5.08041 -29.91137,-11.78325 -1.63163,-1.49421 -3.77063,-3.19682 -4.75333,-3.78358 -4.22895,-2.52504 -4.03162,-4.05162 1.13856,-8.8081 2.71757,-2.50011 5.50354,-4.56353 6.19104,-4.58536 0.6875,-0.0218 1.25,-0.39442 1.25,-0.82795 0,-2.24165 9.02314,-8.31458 9.68636,-6.51931 0.36727,0.99415 0.95704,2.03255 1.31061,2.30755 0.35357,0.275 2.47172,2.975 4.707,6 6.85108,9.27155 13.35739,14 19.26391,14 3.37046,0 3.15702,-43.46528 -0.21788,-44.36971 -17.28876,-4.63321 -40.91459,6.95097 -61.5,30.15458 -7.79616,8.78772 -7.81393,8.55703 1.3162,17.08356 17.68904,16.51961 35.69024,24.83896 54.1838,25.0413 l 8.25,0.0903 0,-6.375 z"
         id="path3307"
         inkscape:connector-curvature="0"
         sodipodi:nodetypes="ssscccsssscssscsssscccssccsssccsscsssssczscccssssssscsscccssccssssscsssssssssscscsscccsscssssscsscsscscsscsssssssscccsscssssssssssscsssssssssscsssssccccssssscsssssssssccs" />
      <path
         style="fill:#030303"
         d="m 197.90103,902.1154 c -5.81557,-5.19621 -5.51034,-24.57947 0.44423,-28.2102 1.83475,-1.11871 2.51646,-1.95016 1.60073,-1.9523 -6.42914,-0.0151 -8.27275,-20.72688 -2.37034,-26.6293 l 2.37444,-2.37444 45.6112,0 c 30.76033,0 46.26855,0.3518 47.63011,1.08049 5.51978,2.9541 6.99077,20.99208 2.0996,25.74643 l -2.75,2.67308 2.75,2.68623 c 2.59346,2.53331 2.75,3.19368 2.75,11.60077 0,19.21829 2.89419,18.213 -52.43456,18.213 l -44.53389,0 -3.17152,-2.83376 z m 41.13997,-14.66624 0,-11.5 -14.46482,0 c -17.02212,0 -16.53518,-0.33673 -16.53518,11.43426 0,11.24698 0.48231,11.56574 17.5,11.56574 l 13.5,0 0,-11.5 z m 44.02311,9.5 c 1.40352,-2.22483 1.22176,-18.35513 -0.22311,-19.8 -0.82145,-0.82145 -5.71111,-1.2 -15.5,-1.2 l -14.3,0 0,10.83333 c 0,5.95834 0.33214,11.16548 0.7381,11.57143 1.50142,1.50143 28.26143,0.21778 29.28501,-1.40476 z m -44.02311,-38 0,-10 -14.46482,0 c -16.79717,0 -16.53518,-0.15844 -16.53518,10 0,10.15844 -0.26199,10 16.53518,10 l 14.46482,0 0,-10 z m 44.39301,8.41821 c 0.99487,-2.59259 0.68821,-14.39793 -0.42819,-16.48395 -0.95022,-1.77549 -2.22252,-1.93426 -15.5,-1.93426 l -14.46482,0 0,10 0,10 14.89301,0 c 12.65799,0 14.9841,-0.23738 15.5,-1.58179 z M 99.040997,857.39411 C 74.182486,852.05506 49.856091,838.9501 21.677465,815.71731 l -2.863532,-2.36094 4.233121,-8.4536 C 42.271449,766.51136 70.668308,743.79217 107.291,737.50256 l 3.75,-0.64403 0,6.00677 0,6.00677 -4.25,1.07213 c -25.975571,6.55275 -43.510638,21.4196 -57.32014,48.59802 -6.760722,13.30576 -6.905258,11.97801 2.320137,21.31345 14.798945,14.97547 34.297791,24.84063 54.500003,27.57348 l 4.75,0.64256 0,5.43872 c 0,6.31651 -0.26838,6.40336 -12.000003,3.88368 z m 283.000003,-3.88368 0,-5.43872 4.75,-0.64256 c 20.20221,-2.73285 39.70106,-12.59801 54.5,-27.57348 9.2254,-9.33544 9.08086,-8.00769 2.32014,-21.31345 C 429.80164,771.3638 412.26657,756.49695 386.291,749.9442 l -4.25,-1.07213 0,-6.00677 0,-6.00677 3.75,0.64403 c 36.62269,6.28961 65.01955,29.0088 84.24394,67.40021 l 4.23312,8.4536 -2.86353,2.36094 c -28.49645,23.49483 -52.79817,36.52271 -77.73711,41.67398 -11.77643,2.43249 -11.62642,2.48256 -11.62642,-3.88086 z m -270,-12.93627 c 0,-7.20826 0.59654,-7.625 10.9149,-7.625 10.5026,0 20.12919,-4.00379 31.8351,-13.24054 8.30305,-6.55166 8.86872,-5.23211 -8.37838,-19.54439 l -6.12838,-5.08556 -3.87162,5.68457 c -8.04961,11.81899 -15.70073,18.10128 -22.12162,18.16396 l -2.25,0.022 0,-21.88337 c 0,-25.22344 -1.03647,-23.07797 11.16091,-23.10298 16.427,-0.0337 34.79493,10.71387 52.58909,30.77122 7.79616,8.78772 7.81393,8.55703 -1.3162,17.08356 -17.67872,16.50998 -36.32554,25.07384 -54.6838,25.11443 l -7.75,0.0171 0,-6.375 z m 245.92969,4.4403 c -13.64542,-3.64309 -26.60013,-11.27729 -39.36349,-23.19687 -9.13013,-8.52653 -9.11236,-8.29584 -1.3162,-17.08356 17.79416,-20.05735 36.16209,-30.80489 52.58909,-30.77122 12.19737,0.025 11.16091,-2.12046 11.16091,23.10298 l 0,21.88337 -2.25,-0.022 c -6.42089,-0.0627 -14.07201,-6.34497 -22.12162,-18.16396 l -3.87162,-5.68457 -6.12838,5.08556 c -17.2471,14.31232 -16.68143,12.99277 -8.37838,19.54443 11.70591,9.23675 21.3325,13.24054 31.8351,13.24054 10.31836,0 10.9149,0.41674 10.9149,7.625 l 0,6.375 -8.25,-0.0903 c -4.5375,-0.0496 -11.20664,-0.87964 -14.82031,-1.84443 z M 101.041,830.48711 c -14.380076,-4.10062 -37.000003,-17.58982 -37.000003,-22.06464 0,-2.32072 6.568133,-15.11703 10.528607,-20.51228 7.997046,-10.89416 22.944562,-21.45893 33.221396,-23.4806 l 3.25,-0.63934 0,5.35205 c 0,5.15187 -0.13872,5.42601 -3.70868,7.32946 -8.996279,4.79665 -17.873545,14.87458 -22.36571,25.39069 l -2.312395,5.4133 3.943391,3.43075 c 5.665795,4.92924 12.903718,8.33147 19.080694,8.96899 l 5.3627,0.55348 0,5.86009 c 0,6.68217 -0.78276,7.02643 -10,4.39805 z m 281,-4.26212 0,-5.99602 5.36269,-0.55348 c 6.17698,-0.63752 13.41491,-4.03975 19.0807,-8.96899 l 3.94339,-3.43075 -2.31239,-5.4133 c -4.49217,-10.51611 -13.36943,-20.59404 -22.36571,-25.39069 -3.56997,-1.90345 -3.70868,-2.17759 -3.70868,-7.32946 l 0,-5.35205 3.25,0.63934 c 15.34399,3.01848 33.21093,19.38786 41.68876,38.19452 2.87418,6.37588 2.64653,6.98831 -4.69863,12.64027 -10.06799,7.74715 -25.98602,15.00288 -35.89324,16.36082 l -4.34689,0.59581 0,-5.99602 z M 203.26377,748.69916 C 187.91858,721.55692 163.55979,702.94362 124.541,688.54467 l -12,-4.42832 -0.27514,-16.15896 -0.27513,-16.15896 2.27513,0.70648 c 25.49234,7.91594 75.72275,52.22299 96.18993,84.84684 6.72154,10.71386 6.72371,10.74016 1.15714,14.00239 -5.57547,3.26744 -4.8749,3.49022 -8.34916,-2.65498 z m 77.52313,2.47133 c -5.4776,-3.13547 -5.58952,-2.26227 1.82664,-14.25137 14.40969,-23.295 45.80134,-54.51898 71.92746,-71.5433 9.79503,-6.38265 24.41755,-13.8443 25.32953,-12.92529 0.36876,0.37159 0.67047,7.59648 0.67047,16.05529 l 0,15.37967 -10,3.67998 c -40.10884,14.75997 -68.17286,36.07055 -81.10225,61.58546 -2.83671,5.59799 -2.52678,5.52565 -8.65185,2.01956 z"
         id="path3305"
         inkscape:connector-curvature="0" />
    </g>
  </g>
</svg>
