<?xml version="1.0" encoding="UTF-8" standalone="no"?>
<!-- Created with Inkscape (http://www.inkscape.org/) -->

<svg
   xmlns:dc="http://purl.org/dc/elements/1.1/"
   xmlns:cc="http://creativecommons.org/ns#"
   xmlns:rdf="http://www.w3.org/1999/02/22-rdf-syntax-ns#"
   xmlns:svg="http://www.w3.org/2000/svg"
   xmlns="http://www.w3.org/2000/svg"
   xmlns:sodipodi="http://sodipodi.sourceforge.net/DTD/sodipodi-0.dtd"
   xmlns:inkscape="http://www.inkscape.org/namespaces/inkscape"
   width="480"
   height="360"
   id="svg2"
   version="1.1"
   inkscape:version="0.48.1 r9760"
   sodipodi:docname="bumblebeelogo_active.svg">
  <defs
     id="defs4" />
  <sodipodi:namedview
     id="base"
     pagecolor="#ffffff"
     bordercolor="#666666"
     borderopacity="1.0"
     inkscape:pageopacity="0"
     inkscape:pageshadow="2"
     inkscape:zoom="1.4"
     inkscape:cx="-19.657292"
     inkscape:cy="182.61284"
     inkscape:document-units="px"
     inkscape:current-layer="g3303"
     showgrid="true"
     inkscape:window-width="1366"
     inkscape:window-height="744"
     inkscape:window-x="0"
     inkscape:window-y="24"
     inkscape:window-maximized="1"
     fit-margin-left="10"
     fit-margin-right="10"
     fit-margin-top="50"
     fit-margin-bottom="50"
     showborder="true"
     borderlayer="false"
     inkscape:showpageshadow="true"
     showguides="false"
     inkscape:snap-global="true">
    <inkscape:grid
       type="xygrid"
       id="grid4300"
       empspacing="5"
       visible="true"
       enabled="true"
       snapvisiblegridlinesonly="true" />
  </sodipodi:namedview>
  <metadata
     id="metadata7">
    <rdf:RDF>
      <cc:Work
         rdf:about="">
        <dc:format>image/svg+xml</dc:format>
        <dc:type
           rdf:resource="http://purl.org/dc/dcmitype/StillImage" />
        <dc:title></dc:title>
      </cc:Work>
    </rdf:RDF>
  </metadata>
  <g
     inkscape:label="Calque 1"
     inkscape:groupmode="layer"
     id="layer1"
     transform="translate(-8.40086,-632.07871)">
    <g
       id="g3303"
       transform="translate(0,33.335034)">
      <path
         style="fill:#ffff00;fill-opacity:1;stroke:#ffff00;stroke-width:4;stroke-miterlimit:4;stroke-opacity:1;stroke-dasharray:none"
         d="m 105,125 0,35 c 45,15 75,35 95,65 l 10,-5 C 190,190 165,145 105,125 z m 270,0 c -60,20 -85,65 -105,95 l 10,5 c 20,-30 50,-50 95,-65 z M 105,205.21875 C 69.98774,210.42474 30,240 15,285 c 15,20 55,45 90,45 35,0 65,-20 85,-45 C 175,245 129.5702,230.80021 104.78125,235.40625 79.9923,240.01229 60,260 55,275 c 15,20 35,25 50,25 15,0 35,-10 45,-25 l -20,-5 c -10,15 -20,15 -25,15 -5,0 -20,0 -30,-15 5,-10 10,-15 30,-20 20,-5 54.17559,10.43075 65,30 -15,20 -40,35 -65,35 -25,0 -55,-15 -70,-35 10,-30 40,-55 70,-60 30,-5 100,30 110,50 12.74303,-6.27971 11.65516,-7.08566 25,-15 13.34484,7.91434 12.25697,8.72029 25,15 10,-20 80,-55 110,-50 30,5 60,30 70,60 -15,20 -45,35 -70,35 -25,0 -50,-15 -65,-35 10.82441,-19.56925 45,-35 65,-30 20,5 25,10 30,20 -10,15 -25,15 -30,15 -5,0 -15,0 -25,-15 l -20,5 c 10,15 30,25 45,25 15,0 35,-5 50,-25 -5,-15 -24.9923,-34.98771 -49.78125,-39.59375 C 350.4298,230.80021 305,245 290,285 c 20,25 50,45 85,45 35,0 75,-25 90,-45 C 450,240 410.01226,210.42474 375,205.21875 339.98774,200.01276 285,225 240,250 195,225 140,200 105,205.21875 z M 195,310 c -6.92716,6.92716 -8.48387,26.8608 0,35 -10,5 -8.45577,28.22919 0,35 l 45,0 45,0 c 8.45577,-6.77081 10,-30 0,-35 8.48387,-8.1392 6.92716,-28.07284 0,-35 l -45,0 z m 25,10 15,0 0,20 -15,0 c -20,0 -20,0.15844 -20,-10 0,-10 0,-10 20,-10 z m 25,0 15,0 c 20,0 20,-0.15844 20,10 0,10.15844 0,10 -20,10 l -15,0 z m -25,30 15,0 0,20 -15,0 c -20,0 -20,0 -20,-10 0,-10 0,-10 20,-10 z m 25,0 15,0 c 20,0 20,0 20,10 0,10 0,10 -20,10 l -15,0 z"
         transform="translate(5.61961,526.74368)"
         id="path3305"
         inkscape:connector-curvature="0"
         sodipodi:nodetypes="ccccccccccccscscsccscscscscccscscscsccscscscsccccccccccccccscccsssccsccssscssscc" />
    </g>
  </g>
</svg>
